<svg xmlns="http://www.w3.org/2000/svg" xmlns:xlink="http://www.w3.org/1999/xlink" width="200" zoomAndPan="magnify" viewBox="0 0 150 112.499997" height="150" preserveAspectRatio="xMidYMid meet" version="1.0"><defs><g/><clipPath id="4b1a2507d0"><path d="M 0.332031 0 L 149.667969 0 L 149.667969 112.003906 L 0.332031 112.003906 Z M 0.332031 0 " clip-rule="nonzero"/></clipPath><clipPath id="95ca5b3606"><path d="M 8.71875 15.570312 L 140.097656 15.570312 L 140.097656 61.894531 L 8.71875 61.894531 Z M 8.71875 15.570312 " clip-rule="nonzero"/></clipPath><clipPath id="198b27ad88"><path d="M 13.945312 15.570312 L 134.835938 15.570312 C 136.222656 15.570312 137.550781 16.121094 138.53125 17.097656 C 139.511719 18.078125 140.0625 19.410156 140.0625 20.796875 L 140.0625 56.667969 C 140.0625 58.054688 139.511719 59.382812 138.53125 60.363281 C 137.550781 61.34375 136.222656 61.894531 134.835938 61.894531 L 13.945312 61.894531 C 12.558594 61.894531 11.230469 61.34375 10.25 60.363281 C 9.269531 59.382812 8.71875 58.054688 8.71875 56.667969 L 8.71875 20.796875 C 8.71875 19.410156 9.269531 18.078125 10.25 17.097656 C 11.230469 16.121094 12.558594 15.570312 13.945312 15.570312 Z M 13.945312 15.570312 " clip-rule="nonzero"/></clipPath><clipPath id="96a93be759"><path d="M 8.71875 65.035156 L 81.371094 65.035156 L 81.371094 92.109375 L 8.71875 92.109375 Z M 8.71875 65.035156 " clip-rule="nonzero"/></clipPath><clipPath id="6afebea1b1"><path d="M 13.945312 65.035156 L 76.050781 65.035156 C 77.4375 65.035156 78.765625 65.585938 79.746094 66.566406 C 80.726562 67.546875 81.277344 68.875 81.277344 70.261719 L 81.277344 86.882812 C 81.277344 88.265625 80.726562 89.597656 79.746094 90.578125 C 78.765625 91.558594 77.4375 92.109375 76.050781 92.109375 L 13.945312 92.109375 C 12.558594 92.109375 11.230469 91.558594 10.25 90.578125 C 9.269531 89.597656 8.71875 88.265625 8.71875 86.882812 L 8.71875 70.261719 C 8.71875 68.875 9.269531 67.546875 10.25 66.566406 C 11.230469 65.585938 12.558594 65.035156 13.945312 65.035156 Z M 13.945312 65.035156 " clip-rule="nonzero"/></clipPath><clipPath id="c4e81b9a52"><path d="M 83.769531 65.035156 L 110.699219 65.035156 L 110.699219 92.175781 L 83.769531 92.175781 Z M 83.769531 65.035156 " clip-rule="nonzero"/></clipPath><clipPath id="c5360af802"><path d="M 88.996094 65.035156 L 105.472656 65.035156 C 106.859375 65.035156 108.1875 65.585938 109.167969 66.566406 C 110.148438 67.546875 110.699219 68.875 110.699219 70.261719 L 110.699219 86.882812 C 110.699219 88.265625 110.148438 89.597656 109.167969 90.578125 C 108.1875 91.558594 106.859375 92.109375 105.472656 92.109375 L 88.996094 92.109375 C 87.609375 92.109375 86.28125 91.558594 85.300781 90.578125 C 84.320312 89.597656 83.769531 88.265625 83.769531 86.882812 L 83.769531 70.261719 C 83.769531 68.875 84.320312 67.546875 85.300781 66.566406 C 86.28125 65.585938 87.609375 65.035156 88.996094 65.035156 Z M 88.996094 65.035156 " clip-rule="nonzero"/></clipPath><clipPath id="20291c53ec"><path d="M 12.429688 70.429688 L 44.996094 70.429688 L 44.996094 86.714844 L 12.429688 86.714844 Z M 12.429688 70.429688 " clip-rule="nonzero"/></clipPath><clipPath id="6e76ca208a"><path d="M 12.429688 86.714844 C 12.429688 77.71875 19.722656 70.429688 28.714844 70.429688 C 37.707031 70.429688 44.996094 77.71875 44.996094 86.714844 L 39.136719 86.714844 C 39.136719 80.957031 34.46875 76.292969 28.714844 76.292969 C 22.957031 76.292969 18.292969 80.957031 18.292969 86.714844 Z M 12.429688 86.714844 " clip-rule="nonzero"/></clipPath><clipPath id="30f138f77e"><path d="M 27.058594 74 L 36.285156 74 L 36.285156 86.777344 L 27.058594 86.777344 Z M 27.058594 74 " clip-rule="nonzero"/></clipPath><clipPath id="5bc2467d9c"><path d="M 30.066406 85.992188 C 29.566406 86.738281 28.554688 86.9375 27.808594 86.4375 C 27.0625 85.9375 26.859375 84.925781 27.359375 84.179688 L 35.640625 74.140625 C 35.707031 74.046875 35.816406 73.992188 35.933594 74 C 36.050781 74.007812 36.152344 74.074219 36.203125 74.179688 C 36.257812 74.285156 36.25 74.40625 36.183594 74.503906 Z M 30.066406 85.992188 " clip-rule="nonzero"/></clipPath><clipPath id="3939d9ea48"><path d="M 18.992188 59 L 134.6875 59 L 134.6875 59.191406 L 18.992188 59.191406 Z M 18.992188 59 " clip-rule="nonzero"/></clipPath><clipPath id="71222bd6c2"><path d="M 18.992188 51 L 134.6875 51 L 134.6875 52 L 18.992188 52 Z M 18.992188 51 " clip-rule="nonzero"/></clipPath><clipPath id="df7e6e890a"><path d="M 18.992188 44 L 134.6875 44 L 134.6875 45 L 18.992188 45 Z M 18.992188 44 " clip-rule="nonzero"/></clipPath><clipPath id="3bb9a87bfb"><path d="M 18.992188 37 L 134.6875 37 L 134.6875 38 L 18.992188 38 Z M 18.992188 37 " clip-rule="nonzero"/></clipPath><clipPath id="ed985b24e0"><path d="M 18.992188 30.074219 L 134.6875 30.074219 L 134.6875 31 L 18.992188 31 Z M 18.992188 30.074219 " clip-rule="nonzero"/></clipPath><clipPath id="7a0181e661"><path d="M 18.992188 54.824219 L 36.484375 54.824219 L 36.484375 59.191406 L 18.992188 59.191406 Z M 18.992188 54.824219 " clip-rule="nonzero"/></clipPath><clipPath id="38e4213d8c"><path d="M 37.40625 50.457031 L 54.898438 50.457031 L 54.898438 59.191406 L 37.40625 59.191406 Z M 37.40625 50.457031 " clip-rule="nonzero"/></clipPath><clipPath id="c389e56890"><path d="M 58.886719 47.542969 L 76.378906 47.542969 L 76.378906 59.191406 L 58.886719 59.191406 Z M 58.886719 47.542969 " clip-rule="nonzero"/></clipPath><clipPath id="fa4bece1da"><path d="M 77.300781 38.808594 L 94.792969 38.808594 L 94.792969 59.191406 L 77.300781 59.191406 Z M 77.300781 38.808594 " clip-rule="nonzero"/></clipPath><clipPath id="fcecf12789"><path d="M 98.78125 35.894531 L 116.273438 35.894531 L 116.273438 59.191406 L 98.78125 59.191406 Z M 98.78125 35.894531 " clip-rule="nonzero"/></clipPath><clipPath id="c416fa37e9"><path d="M 117.195312 32.984375 L 134.6875 32.984375 L 134.6875 59.191406 L 117.195312 59.191406 Z M 117.195312 32.984375 " clip-rule="nonzero"/></clipPath><clipPath id="20c5842132"><path d="M 92 73 L 104.546875 73 L 104.546875 83 L 92 83 Z M 92 73 " clip-rule="nonzero"/></clipPath><clipPath id="80dc1320b5"><path d="M 89.613281 71.539062 L 104 71.539062 L 104 85.726562 L 89.613281 85.726562 Z M 89.613281 71.539062 " clip-rule="nonzero"/></clipPath><clipPath id="073d831e8a"><path d="M 46.171875 70.347656 L 78.902344 70.347656 L 78.902344 86.714844 L 46.171875 86.714844 Z M 46.171875 70.347656 " clip-rule="nonzero"/></clipPath><clipPath id="0017a05793"><path d="M 46.171875 86.714844 C 46.171875 77.675781 53.5 70.347656 62.535156 70.347656 C 71.574219 70.347656 78.902344 77.675781 78.902344 86.714844 L 73.011719 86.714844 C 73.011719 80.929688 68.320312 76.238281 62.535156 76.238281 C 56.753906 76.238281 52.0625 80.929688 52.0625 86.714844 Z M 46.171875 86.714844 " clip-rule="nonzero"/></clipPath><clipPath id="4152910d95"><path d="M 56.527344 73.097656 L 64.199219 73.097656 L 64.199219 86.777344 L 56.527344 86.777344 Z M 56.527344 73.097656 " clip-rule="nonzero"/></clipPath><clipPath id="a3ce93476c"><path d="M 64.007812 84.363281 C 64.265625 84.886719 64.21875 85.511719 63.890625 85.992188 C 63.5625 86.476562 63.003906 86.75 62.417969 86.710938 C 61.835938 86.667969 61.320312 86.316406 61.0625 85.792969 L 56.601562 73.605469 C 56.523438 73.441406 56.589844 73.246094 56.753906 73.167969 C 56.914062 73.089844 57.109375 73.15625 57.191406 73.320312 Z M 64.007812 84.363281 " clip-rule="nonzero"/></clipPath><clipPath id="c6532abb49"><path d="M 113.132812 65.035156 L 140.0625 65.035156 L 140.0625 92.175781 L 113.132812 92.175781 Z M 113.132812 65.035156 " clip-rule="nonzero"/></clipPath><clipPath id="8b7b0db45a"><path d="M 118.359375 65.035156 L 134.835938 65.035156 C 136.222656 65.035156 137.550781 65.585938 138.53125 66.566406 C 139.511719 67.546875 140.0625 68.875 140.0625 70.261719 L 140.0625 86.882812 C 140.0625 88.265625 139.511719 89.597656 138.53125 90.578125 C 137.550781 91.558594 136.222656 92.109375 134.835938 92.109375 L 118.359375 92.109375 C 116.972656 92.109375 115.644531 91.558594 114.664062 90.578125 C 113.683594 89.597656 113.132812 88.265625 113.132812 86.882812 L 113.132812 70.261719 C 113.132812 68.875 113.683594 67.546875 114.664062 66.566406 C 115.644531 65.585938 116.972656 65.035156 118.359375 65.035156 Z M 118.359375 65.035156 " clip-rule="nonzero"/></clipPath><clipPath id="07de02263d"><path d="M 121 73 L 133.910156 73 L 133.910156 83 L 121 83 Z M 121 73 " clip-rule="nonzero"/></clipPath><clipPath id="2e4c6e5185"><path d="M 119 71.539062 L 133.910156 71.539062 L 133.910156 85.726562 L 119 85.726562 Z M 119 71.539062 " clip-rule="nonzero"/></clipPath></defs><g clip-path="url(#4b1a2507d0)"><path fill="#ffffff" d="M 0.332031 0 L 149.667969 0 L 149.667969 112.003906 L 0.332031 112.003906 Z M 0.332031 0 " fill-opacity="1" fill-rule="nonzero"/><path fill="#f6f1ed" d="M 0.332031 0 L 149.667969 0 L 149.667969 112.003906 L 0.332031 112.003906 Z M 0.332031 0 " fill-opacity="1" fill-rule="nonzero"/></g><g clip-path="url(#95ca5b3606)"><g clip-path="url(#198b27ad88)"><path fill="#e8dada" d="M 8.71875 15.570312 L 140.097656 15.570312 L 140.097656 61.894531 L 8.71875 61.894531 Z M 8.71875 15.570312 " fill-opacity="1" fill-rule="nonzero"/></g></g><g clip-path="url(#96a93be759)"><g clip-path="url(#6afebea1b1)"><path fill="#e8dada" d="M 8.71875 65.035156 L 81.265625 65.035156 L 81.265625 92.109375 L 8.71875 92.109375 Z M 8.71875 65.035156 " fill-opacity="1" fill-rule="nonzero"/></g></g><g clip-path="url(#c4e81b9a52)"><g clip-path="url(#c5360af802)"><path fill="#e3b9bc" d="M 83.769531 65.035156 L 110.699219 65.035156 L 110.699219 92.070312 L 83.769531 92.070312 Z M 83.769531 65.035156 " fill-opacity="1" fill-rule="nonzero"/></g></g><g clip-path="url(#20291c53ec)"><g clip-path="url(#6e76ca208a)"><path fill="#e3b9bc" d="M 12.429688 70.429688 L 44.996094 70.429688 L 44.996094 86.714844 L 12.429688 86.714844 Z M 12.429688 70.429688 " fill-opacity="1" fill-rule="nonzero"/></g></g><g clip-path="url(#30f138f77e)"><g clip-path="url(#5bc2467d9c)"><path fill="#ab727a" d="M 12.429688 70.429688 L 44.996094 70.429688 L 44.996094 86.714844 L 12.429688 86.714844 Z M 12.429688 70.429688 " fill-opacity="1" fill-rule="nonzero"/></g></g><g clip-path="url(#3939d9ea48)"><path stroke-linecap="butt" transform="matrix(0.158434, 0, 0, 0.158434, 18.991457, 30.072627)" fill="none" stroke-linejoin="miter" d="M 0.00461071 183.791359 L 730.248081 183.791359 " stroke="#000000" stroke-width="1" stroke-opacity="0.6" stroke-miterlimit="4"/></g><g clip-path="url(#71222bd6c2)"><path stroke-linecap="butt" transform="matrix(0.158434, 0, 0, 0.158434, 18.991457, 30.072627)" fill="none" stroke-linejoin="miter" d="M 0.00461071 137.833704 L 730.248081 137.833704 " stroke="#000000" stroke-width="1" stroke-opacity="0.251" stroke-miterlimit="4"/></g><g clip-path="url(#df7e6e890a)"><path stroke-linecap="butt" transform="matrix(0.158434, 0, 0, 0.158434, 18.991457, 30.072627)" fill="none" stroke-linejoin="miter" d="M 0.00461071 91.900704 L 730.248081 91.900704 " stroke="#000000" stroke-width="1" stroke-opacity="0.251" stroke-miterlimit="4"/></g><g clip-path="url(#3bb9a87bfb)"><path stroke-linecap="butt" transform="matrix(0.158434, 0, 0, 0.158434, 18.991457, 30.072627)" fill="none" stroke-linejoin="miter" d="M 0.00461071 45.943049 L 730.248081 45.943049 " stroke="#000000" stroke-width="1" stroke-opacity="0.251" stroke-miterlimit="4"/></g><g clip-path="url(#ed985b24e0)"><path stroke-linecap="butt" transform="matrix(0.158434, 0, 0, 0.158434, 18.991457, 30.072627)" fill="none" stroke-linejoin="miter" d="M 0.00461071 0.0100497 L 730.248081 0.0100497 " stroke="#000000" stroke-width="1" stroke-opacity="0.251" stroke-miterlimit="4"/></g><g fill="#000000" fill-opacity="1"><g transform="translate(16.347975, 59.903701)"><g><path d="M 1 -0.6875 C 1 -0.570312 0.988281 -0.472656 0.96875 -0.390625 C 0.957031 -0.304688 0.929688 -0.234375 0.890625 -0.171875 C 0.859375 -0.109375 0.8125 -0.0625 0.75 -0.03125 C 0.695312 0 0.628906 0.015625 0.546875 0.015625 C 0.441406 0.015625 0.351562 -0.0078125 0.28125 -0.0625 C 0.21875 -0.113281 0.171875 -0.191406 0.140625 -0.296875 C 0.109375 -0.410156 0.09375 -0.539062 0.09375 -0.6875 C 0.09375 -0.832031 0.109375 -0.957031 0.140625 -1.0625 C 0.171875 -1.164062 0.21875 -1.242188 0.28125 -1.296875 C 0.351562 -1.359375 0.441406 -1.390625 0.546875 -1.390625 C 0.648438 -1.390625 0.734375 -1.359375 0.796875 -1.296875 C 0.867188 -1.242188 0.921875 -1.164062 0.953125 -1.0625 C 0.984375 -0.957031 1 -0.832031 1 -0.6875 Z M 0.25 -0.6875 C 0.25 -0.5625 0.257812 -0.453125 0.28125 -0.359375 C 0.300781 -0.273438 0.332031 -0.210938 0.375 -0.171875 C 0.414062 -0.128906 0.472656 -0.109375 0.546875 -0.109375 C 0.617188 -0.109375 0.675781 -0.128906 0.71875 -0.171875 C 0.757812 -0.210938 0.789062 -0.273438 0.8125 -0.359375 C 0.832031 -0.453125 0.84375 -0.5625 0.84375 -0.6875 C 0.84375 -0.8125 0.832031 -0.914062 0.8125 -1 C 0.789062 -1.082031 0.757812 -1.144531 0.71875 -1.1875 C 0.675781 -1.238281 0.617188 -1.265625 0.546875 -1.265625 C 0.472656 -1.265625 0.414062 -1.238281 0.375 -1.1875 C 0.332031 -1.144531 0.300781 -1.082031 0.28125 -1 C 0.257812 -0.914062 0.25 -0.8125 0.25 -0.6875 Z M 0.25 -0.6875 "/></g></g></g><g fill="#000000" fill-opacity="1"><g transform="translate(16.347975, 52.624167)"><g><path d="M 0.53125 -0.84375 C 0.625 -0.84375 0.703125 -0.828125 0.765625 -0.796875 C 0.835938 -0.765625 0.890625 -0.71875 0.921875 -0.65625 C 0.960938 -0.59375 0.984375 -0.519531 0.984375 -0.4375 C 0.984375 -0.34375 0.960938 -0.257812 0.921875 -0.1875 C 0.878906 -0.125 0.820312 -0.0703125 0.75 -0.03125 C 0.675781 0 0.585938 0.015625 0.484375 0.015625 C 0.410156 0.015625 0.34375 0.0078125 0.28125 0 C 0.21875 -0.0078125 0.164062 -0.03125 0.125 -0.0625 L 0.125 -0.203125 C 0.164062 -0.171875 0.21875 -0.144531 0.28125 -0.125 C 0.351562 -0.113281 0.421875 -0.109375 0.484375 -0.109375 C 0.546875 -0.109375 0.601562 -0.117188 0.65625 -0.140625 C 0.707031 -0.171875 0.75 -0.207031 0.78125 -0.25 C 0.8125 -0.289062 0.828125 -0.347656 0.828125 -0.421875 C 0.828125 -0.515625 0.796875 -0.582031 0.734375 -0.625 C 0.679688 -0.675781 0.597656 -0.703125 0.484375 -0.703125 C 0.441406 -0.703125 0.394531 -0.695312 0.34375 -0.6875 C 0.300781 -0.6875 0.265625 -0.679688 0.234375 -0.671875 L 0.15625 -0.734375 L 0.203125 -1.375 L 0.890625 -1.375 L 0.890625 -1.234375 L 0.34375 -1.234375 L 0.3125 -0.8125 C 0.332031 -0.820312 0.359375 -0.828125 0.390625 -0.828125 C 0.429688 -0.835938 0.476562 -0.84375 0.53125 -0.84375 Z M 0.53125 -0.84375 "/></g></g></g><g fill="#000000" fill-opacity="1"><g transform="translate(15.323107, 45.34464)"><g><path d="M 0.671875 0 L 0.515625 0 L 0.515625 -0.96875 C 0.515625 -1.007812 0.515625 -1.039062 0.515625 -1.0625 C 0.523438 -1.09375 0.53125 -1.117188 0.53125 -1.140625 C 0.53125 -1.160156 0.53125 -1.179688 0.53125 -1.203125 C 0.507812 -1.179688 0.488281 -1.164062 0.46875 -1.15625 C 0.457031 -1.144531 0.4375 -1.128906 0.40625 -1.109375 L 0.25 -0.984375 L 0.171875 -1.078125 L 0.546875 -1.375 L 0.671875 -1.375 Z M 0.671875 0 "/></g></g></g><g fill="#000000" fill-opacity="1"><g transform="translate(16.421498, 45.34464)"><g><path d="M 1 -0.6875 C 1 -0.570312 0.988281 -0.472656 0.96875 -0.390625 C 0.957031 -0.304688 0.929688 -0.234375 0.890625 -0.171875 C 0.859375 -0.109375 0.8125 -0.0625 0.75 -0.03125 C 0.695312 0 0.628906 0.015625 0.546875 0.015625 C 0.441406 0.015625 0.351562 -0.0078125 0.28125 -0.0625 C 0.21875 -0.113281 0.171875 -0.191406 0.140625 -0.296875 C 0.109375 -0.410156 0.09375 -0.539062 0.09375 -0.6875 C 0.09375 -0.832031 0.109375 -0.957031 0.140625 -1.0625 C 0.171875 -1.164062 0.21875 -1.242188 0.28125 -1.296875 C 0.351562 -1.359375 0.441406 -1.390625 0.546875 -1.390625 C 0.648438 -1.390625 0.734375 -1.359375 0.796875 -1.296875 C 0.867188 -1.242188 0.921875 -1.164062 0.953125 -1.0625 C 0.984375 -0.957031 1 -0.832031 1 -0.6875 Z M 0.25 -0.6875 C 0.25 -0.5625 0.257812 -0.453125 0.28125 -0.359375 C 0.300781 -0.273438 0.332031 -0.210938 0.375 -0.171875 C 0.414062 -0.128906 0.472656 -0.109375 0.546875 -0.109375 C 0.617188 -0.109375 0.675781 -0.128906 0.71875 -0.171875 C 0.757812 -0.210938 0.789062 -0.273438 0.8125 -0.359375 C 0.832031 -0.453125 0.84375 -0.5625 0.84375 -0.6875 C 0.84375 -0.8125 0.832031 -0.914062 0.8125 -1 C 0.789062 -1.082031 0.757812 -1.144531 0.71875 -1.1875 C 0.675781 -1.238281 0.617188 -1.265625 0.546875 -1.265625 C 0.472656 -1.265625 0.414062 -1.238281 0.375 -1.1875 C 0.332031 -1.144531 0.300781 -1.082031 0.28125 -1 C 0.257812 -0.914062 0.25 -0.8125 0.25 -0.6875 Z M 0.25 -0.6875 "/></g></g></g><g fill="#000000" fill-opacity="1"><g transform="translate(15.323107, 38.065109)"><g><path d="M 0.671875 0 L 0.515625 0 L 0.515625 -0.96875 C 0.515625 -1.007812 0.515625 -1.039062 0.515625 -1.0625 C 0.523438 -1.09375 0.53125 -1.117188 0.53125 -1.140625 C 0.53125 -1.160156 0.53125 -1.179688 0.53125 -1.203125 C 0.507812 -1.179688 0.488281 -1.164062 0.46875 -1.15625 C 0.457031 -1.144531 0.4375 -1.128906 0.40625 -1.109375 L 0.25 -0.984375 L 0.171875 -1.078125 L 0.546875 -1.375 L 0.671875 -1.375 Z M 0.671875 0 "/></g></g></g><g fill="#000000" fill-opacity="1"><g transform="translate(16.421498, 38.065109)"><g><path d="M 0.53125 -0.84375 C 0.625 -0.84375 0.703125 -0.828125 0.765625 -0.796875 C 0.835938 -0.765625 0.890625 -0.71875 0.921875 -0.65625 C 0.960938 -0.59375 0.984375 -0.519531 0.984375 -0.4375 C 0.984375 -0.34375 0.960938 -0.257812 0.921875 -0.1875 C 0.878906 -0.125 0.820312 -0.0703125 0.75 -0.03125 C 0.675781 0 0.585938 0.015625 0.484375 0.015625 C 0.410156 0.015625 0.34375 0.0078125 0.28125 0 C 0.21875 -0.0078125 0.164062 -0.03125 0.125 -0.0625 L 0.125 -0.203125 C 0.164062 -0.171875 0.21875 -0.144531 0.28125 -0.125 C 0.351562 -0.113281 0.421875 -0.109375 0.484375 -0.109375 C 0.546875 -0.109375 0.601562 -0.117188 0.65625 -0.140625 C 0.707031 -0.171875 0.75 -0.207031 0.78125 -0.25 C 0.8125 -0.289062 0.828125 -0.347656 0.828125 -0.421875 C 0.828125 -0.515625 0.796875 -0.582031 0.734375 -0.625 C 0.679688 -0.675781 0.597656 -0.703125 0.484375 -0.703125 C 0.441406 -0.703125 0.394531 -0.695312 0.34375 -0.6875 C 0.300781 -0.6875 0.265625 -0.679688 0.234375 -0.671875 L 0.15625 -0.734375 L 0.203125 -1.375 L 0.890625 -1.375 L 0.890625 -1.234375 L 0.34375 -1.234375 L 0.3125 -0.8125 C 0.332031 -0.820312 0.359375 -0.828125 0.390625 -0.828125 C 0.429688 -0.835938 0.476562 -0.84375 0.53125 -0.84375 Z M 0.53125 -0.84375 "/></g></g></g><g fill="#000000" fill-opacity="1"><g transform="translate(15.323107, 30.785582)"><g><path d="M 1 0 L 0.09375 0 L 0.09375 -0.125 L 0.46875 -0.5 C 0.53125 -0.570312 0.582031 -0.632812 0.625 -0.6875 C 0.675781 -0.738281 0.710938 -0.789062 0.734375 -0.84375 C 0.765625 -0.894531 0.78125 -0.953125 0.78125 -1.015625 C 0.78125 -1.097656 0.753906 -1.15625 0.703125 -1.1875 C 0.660156 -1.226562 0.601562 -1.25 0.53125 -1.25 C 0.457031 -1.25 0.394531 -1.238281 0.34375 -1.21875 C 0.300781 -1.195312 0.253906 -1.164062 0.203125 -1.125 L 0.109375 -1.234375 C 0.148438 -1.265625 0.191406 -1.289062 0.234375 -1.3125 C 0.273438 -1.332031 0.316406 -1.347656 0.359375 -1.359375 C 0.410156 -1.378906 0.46875 -1.390625 0.53125 -1.390625 C 0.613281 -1.390625 0.6875 -1.375 0.75 -1.34375 C 0.8125 -1.3125 0.859375 -1.269531 0.890625 -1.21875 C 0.921875 -1.164062 0.9375 -1.101562 0.9375 -1.03125 C 0.9375 -0.957031 0.921875 -0.890625 0.890625 -0.828125 C 0.859375 -0.765625 0.816406 -0.703125 0.765625 -0.640625 C 0.722656 -0.578125 0.664062 -0.515625 0.59375 -0.453125 L 0.296875 -0.15625 L 0.296875 -0.140625 L 1 -0.140625 Z M 1 0 "/></g></g></g><g fill="#000000" fill-opacity="1"><g transform="translate(16.421498, 30.785582)"><g><path d="M 1 -0.6875 C 1 -0.570312 0.988281 -0.472656 0.96875 -0.390625 C 0.957031 -0.304688 0.929688 -0.234375 0.890625 -0.171875 C 0.859375 -0.109375 0.8125 -0.0625 0.75 -0.03125 C 0.695312 0 0.628906 0.015625 0.546875 0.015625 C 0.441406 0.015625 0.351562 -0.0078125 0.28125 -0.0625 C 0.21875 -0.113281 0.171875 -0.191406 0.140625 -0.296875 C 0.109375 -0.410156 0.09375 -0.539062 0.09375 -0.6875 C 0.09375 -0.832031 0.109375 -0.957031 0.140625 -1.0625 C 0.171875 -1.164062 0.21875 -1.242188 0.28125 -1.296875 C 0.351562 -1.359375 0.441406 -1.390625 0.546875 -1.390625 C 0.648438 -1.390625 0.734375 -1.359375 0.796875 -1.296875 C 0.867188 -1.242188 0.921875 -1.164062 0.953125 -1.0625 C 0.984375 -0.957031 1 -0.832031 1 -0.6875 Z M 0.25 -0.6875 C 0.25 -0.5625 0.257812 -0.453125 0.28125 -0.359375 C 0.300781 -0.273438 0.332031 -0.210938 0.375 -0.171875 C 0.414062 -0.128906 0.472656 -0.109375 0.546875 -0.109375 C 0.617188 -0.109375 0.675781 -0.128906 0.71875 -0.171875 C 0.757812 -0.210938 0.789062 -0.273438 0.8125 -0.359375 C 0.832031 -0.453125 0.84375 -0.5625 0.84375 -0.6875 C 0.84375 -0.8125 0.832031 -0.914062 0.8125 -1 C 0.789062 -1.082031 0.757812 -1.144531 0.71875 -1.1875 C 0.675781 -1.238281 0.617188 -1.265625 0.546875 -1.265625 C 0.472656 -1.265625 0.414062 -1.238281 0.375 -1.1875 C 0.332031 -1.144531 0.300781 -1.082031 0.28125 -1 C 0.257812 -0.914062 0.25 -0.8125 0.25 -0.6875 Z M 0.25 -0.6875 "/></g></g></g><g clip-path="url(#7a0181e661)"><path fill="#ab727a" d="M 20.390625 54.824219 L 35.085938 54.824219 C 35.269531 54.824219 35.449219 54.859375 35.621094 54.929688 C 35.792969 55 35.941406 55.101562 36.074219 55.234375 C 36.207031 55.363281 36.304688 55.515625 36.378906 55.6875 C 36.449219 55.859375 36.484375 56.035156 36.484375 56.222656 L 36.484375 59.191406 C 36.484375 59.375 36.449219 59.554688 36.378906 59.726562 C 36.304688 59.898438 36.207031 60.050781 36.074219 60.179688 C 35.941406 60.3125 35.792969 60.414062 35.621094 60.484375 C 35.449219 60.554688 35.269531 60.589844 35.085938 60.589844 L 20.390625 60.589844 C 20.207031 60.589844 20.027344 60.554688 19.855469 60.484375 C 19.683594 60.414062 19.53125 60.3125 19.402344 60.179688 C 19.269531 60.050781 19.167969 59.898438 19.097656 59.726562 C 19.027344 59.554688 18.992188 59.375 18.992188 59.191406 L 18.992188 56.222656 C 18.992188 56.035156 19.027344 55.859375 19.097656 55.6875 C 19.167969 55.515625 19.269531 55.363281 19.402344 55.234375 C 19.53125 55.101562 19.683594 55 19.855469 54.929688 C 20.027344 54.859375 20.207031 54.824219 20.390625 54.824219 Z M 20.390625 54.824219 " fill-opacity="1" fill-rule="nonzero"/></g><g clip-path="url(#38e4213d8c)"><path fill="#e3b9bc" d="M 38.804688 50.457031 L 53.496094 50.457031 C 53.683594 50.457031 53.863281 50.492188 54.03125 50.5625 C 54.203125 50.632812 54.355469 50.734375 54.488281 50.863281 C 54.617188 50.996094 54.71875 51.148438 54.789062 51.320312 C 54.863281 51.492188 54.898438 51.667969 54.898438 51.855469 L 54.898438 59.191406 C 54.898438 59.375 54.863281 59.554688 54.789062 59.726562 C 54.71875 59.898438 54.617188 60.050781 54.488281 60.179688 C 54.355469 60.3125 54.203125 60.414062 54.03125 60.484375 C 53.863281 60.554688 53.683594 60.589844 53.496094 60.589844 L 38.804688 60.589844 C 38.617188 60.589844 38.441406 60.554688 38.269531 60.484375 C 38.097656 60.414062 37.945312 60.3125 37.8125 60.179688 C 37.683594 60.050781 37.582031 59.898438 37.511719 59.726562 C 37.441406 59.554688 37.40625 59.375 37.40625 59.191406 L 37.40625 51.855469 C 37.40625 51.667969 37.441406 51.492188 37.511719 51.320312 C 37.582031 51.148438 37.683594 50.996094 37.8125 50.863281 C 37.945312 50.734375 38.097656 50.632812 38.269531 50.5625 C 38.441406 50.492188 38.617188 50.457031 38.804688 50.457031 Z M 38.804688 50.457031 " fill-opacity="1" fill-rule="nonzero"/></g><g clip-path="url(#c389e56890)"><path fill="#ab727a" d="M 60.285156 47.542969 L 74.980469 47.542969 C 75.164062 47.542969 75.34375 47.578125 75.515625 47.648438 C 75.6875 47.722656 75.835938 47.820312 75.96875 47.953125 C 76.101562 48.085938 76.203125 48.234375 76.273438 48.40625 C 76.34375 48.578125 76.378906 48.757812 76.378906 48.941406 L 76.378906 59.191406 C 76.378906 59.375 76.34375 59.554688 76.273438 59.726562 C 76.203125 59.898438 76.101562 60.050781 75.96875 60.179688 C 75.835938 60.3125 75.6875 60.414062 75.515625 60.484375 C 75.34375 60.554688 75.164062 60.589844 74.980469 60.589844 L 60.285156 60.589844 C 60.101562 60.589844 59.921875 60.554688 59.75 60.484375 C 59.578125 60.414062 59.425781 60.3125 59.296875 60.179688 C 59.164062 60.050781 59.0625 59.898438 58.992188 59.726562 C 58.921875 59.554688 58.886719 59.375 58.886719 59.191406 L 58.886719 48.941406 C 58.886719 48.757812 58.921875 48.578125 58.992188 48.40625 C 59.0625 48.234375 59.164062 48.085938 59.296875 47.953125 C 59.425781 47.820312 59.578125 47.722656 59.75 47.648438 C 59.921875 47.578125 60.101562 47.542969 60.285156 47.542969 Z M 60.285156 47.542969 " fill-opacity="1" fill-rule="nonzero"/></g><g clip-path="url(#fa4bece1da)"><path fill="#e3b9bc" d="M 78.699219 38.808594 L 93.394531 38.808594 C 93.578125 38.808594 93.757812 38.84375 93.929688 38.914062 C 94.097656 38.984375 94.25 39.085938 94.382812 39.21875 C 94.511719 39.347656 94.613281 39.5 94.683594 39.671875 C 94.757812 39.84375 94.792969 40.023438 94.792969 40.207031 L 94.792969 59.191406 C 94.792969 59.375 94.757812 59.554688 94.683594 59.726562 C 94.613281 59.898438 94.511719 60.050781 94.382812 60.179688 C 94.25 60.3125 94.097656 60.414062 93.929688 60.484375 C 93.757812 60.554688 93.578125 60.589844 93.394531 60.589844 L 78.699219 60.589844 C 78.511719 60.589844 78.335938 60.554688 78.164062 60.484375 C 77.992188 60.414062 77.839844 60.3125 77.710938 60.179688 C 77.578125 60.050781 77.476562 59.898438 77.40625 59.726562 C 77.335938 59.554688 77.300781 59.375 77.300781 59.191406 L 77.300781 40.207031 C 77.300781 40.023438 77.335938 39.84375 77.40625 39.671875 C 77.476562 39.5 77.578125 39.347656 77.710938 39.21875 C 77.839844 39.085938 77.992188 38.984375 78.164062 38.914062 C 78.335938 38.84375 78.511719 38.808594 78.699219 38.808594 Z M 78.699219 38.808594 " fill-opacity="1" fill-rule="nonzero"/></g><g clip-path="url(#fcecf12789)"><path fill="#ab727a" d="M 100.179688 35.894531 L 114.875 35.894531 C 115.058594 35.894531 115.238281 35.933594 115.410156 36.003906 C 115.582031 36.074219 115.734375 36.175781 115.863281 36.304688 C 115.996094 36.4375 116.097656 36.589844 116.167969 36.761719 C 116.238281 36.929688 116.273438 37.109375 116.273438 37.296875 L 116.273438 59.191406 C 116.273438 59.375 116.238281 59.554688 116.167969 59.726562 C 116.097656 59.898438 115.996094 60.050781 115.863281 60.179688 C 115.734375 60.3125 115.582031 60.414062 115.410156 60.484375 C 115.238281 60.554688 115.058594 60.589844 114.875 60.589844 L 100.179688 60.589844 C 99.996094 60.589844 99.816406 60.554688 99.644531 60.484375 C 99.472656 60.414062 99.324219 60.3125 99.191406 60.179688 C 99.058594 60.050781 98.960938 59.898438 98.886719 59.726562 C 98.816406 59.554688 98.78125 59.375 98.78125 59.191406 L 98.78125 37.296875 C 98.78125 37.109375 98.816406 36.929688 98.886719 36.761719 C 98.960938 36.589844 99.058594 36.4375 99.191406 36.304688 C 99.324219 36.175781 99.472656 36.074219 99.644531 36.003906 C 99.816406 35.933594 99.996094 35.894531 100.179688 35.894531 Z M 100.179688 35.894531 " fill-opacity="1" fill-rule="nonzero"/></g><g clip-path="url(#c416fa37e9)"><path fill="#e3b9bc" d="M 118.59375 32.984375 L 133.289062 32.984375 C 133.472656 32.984375 133.652344 33.019531 133.824219 33.089844 C 133.996094 33.160156 134.144531 33.261719 134.277344 33.394531 C 134.410156 33.527344 134.507812 33.675781 134.582031 33.847656 C 134.652344 34.019531 134.6875 34.199219 134.6875 34.382812 L 134.6875 59.191406 C 134.6875 59.375 134.652344 59.554688 134.582031 59.726562 C 134.507812 59.898438 134.410156 60.050781 134.277344 60.179688 C 134.144531 60.3125 133.996094 60.414062 133.824219 60.484375 C 133.652344 60.554688 133.472656 60.589844 133.289062 60.589844 L 118.59375 60.589844 C 118.410156 60.589844 118.230469 60.554688 118.058594 60.484375 C 117.886719 60.414062 117.734375 60.3125 117.605469 60.179688 C 117.472656 60.050781 117.371094 59.898438 117.300781 59.726562 C 117.230469 59.554688 117.195312 59.375 117.195312 59.191406 L 117.195312 34.382812 C 117.195312 34.199219 117.230469 34.019531 117.300781 33.847656 C 117.371094 33.675781 117.472656 33.527344 117.605469 33.394531 C 117.734375 33.261719 117.886719 33.160156 118.058594 33.089844 C 118.230469 33.019531 118.410156 32.984375 118.59375 32.984375 Z M 118.59375 32.984375 " fill-opacity="1" fill-rule="nonzero"/></g><g clip-path="url(#20c5842132)"><path fill="#ab727a" d="M 94.890625 80.851562 L 96.433594 82.609375 L 96.488281 82.667969 L 104.816406 75.351562 L 103.21875 73.535156 L 96.679688 79.277344 L 94.402344 76.683594 L 92.609375 78.257812 Z M 94.890625 80.851562 " fill-opacity="1" fill-rule="nonzero"/></g><g clip-path="url(#80dc1320b5)"><path fill="#ab727a" d="M 101.945312 83.839844 L 91.402344 83.839844 L 91.402344 73.296875 L 101.945312 73.296875 L 101.945312 73.597656 L 103.40625 72.320312 C 103.089844 71.851562 102.554688 71.539062 101.945312 71.539062 L 91.402344 71.539062 C 90.429688 71.539062 89.644531 72.328125 89.644531 73.296875 L 89.644531 83.839844 C 89.644531 84.8125 90.429688 85.597656 91.402344 85.597656 L 101.945312 85.597656 C 102.917969 85.597656 103.703125 84.8125 103.703125 83.839844 L 103.703125 77.371094 L 101.945312 78.914062 Z M 101.945312 83.839844 " fill-opacity="1" fill-rule="nonzero"/></g><g clip-path="url(#073d831e8a)"><g clip-path="url(#0017a05793)"><path fill="#e3b9bc" d="M 46.171875 70.347656 L 78.902344 70.347656 L 78.902344 86.714844 L 46.171875 86.714844 Z M 46.171875 70.347656 " fill-opacity="1" fill-rule="nonzero"/></g></g><g clip-path="url(#4152910d95)"><g clip-path="url(#a3ce93476c)"><path fill="#ab727a" d="M 46.171875 70.347656 L 78.902344 70.347656 L 78.902344 86.714844 L 46.171875 86.714844 Z M 46.171875 70.347656 " fill-opacity="1" fill-rule="nonzero"/></g></g><g clip-path="url(#c6532abb49)"><g clip-path="url(#8b7b0db45a)"><path fill="#e3b9bc" d="M 113.132812 65.035156 L 140.0625 65.035156 L 140.0625 92.070312 L 113.132812 92.070312 Z M 113.132812 65.035156 " fill-opacity="1" fill-rule="nonzero"/></g></g><g clip-path="url(#07de02263d)"><path fill="#ab727a" d="M 124.253906 80.851562 L 125.796875 82.609375 L 125.851562 82.667969 L 134.179688 75.351562 L 132.582031 73.535156 L 126.046875 79.277344 L 123.765625 76.683594 L 121.972656 78.257812 Z M 124.253906 80.851562 " fill-opacity="1" fill-rule="nonzero"/></g><g clip-path="url(#2e4c6e5185)"><path fill="#ab727a" d="M 131.308594 83.839844 L 120.765625 83.839844 L 120.765625 73.296875 L 131.308594 73.296875 L 131.308594 73.597656 L 132.769531 72.320312 C 132.453125 71.851562 131.917969 71.539062 131.308594 71.539062 L 120.765625 71.539062 C 119.796875 71.539062 119.007812 72.328125 119.007812 73.296875 L 119.007812 83.839844 C 119.007812 84.8125 119.796875 85.597656 120.765625 85.597656 L 131.308594 85.597656 C 132.28125 85.597656 133.066406 84.8125 133.066406 83.839844 L 133.066406 77.371094 L 131.308594 78.914062 Z M 131.308594 83.839844 " fill-opacity="1" fill-rule="nonzero"/></g></svg>